<?xml version="1.0" encoding="UTF-8"?>
<!-- Generated by Pixelmator Pro 3.7 -->
<svg width="980" height="980" viewBox="0 0 980 980" xmlns="http://www.w3.org/2000/svg">
    <path id="Shape" fill="#ffffff" fill-rule="evenodd" stroke="none" d="M 79.320038 940.5 C 83.705452 927.325012 86.299423 920.481384 87.913719 916.791992 C 89.528015 913.102539 92.878922 906.945679 95.360176 903.110046 C 97.841438 899.274414 102.691704 893.385193 106.13855 890.022888 C 110.356941 885.907959 115.199532 882.511597 120.952774 879.632935 C 126.20298 877.005981 132.864288 874.651001 138.221603 873.527832 C 145.477707 872.006592 149.594467 871.802307 162.721603 872.312012 C 171.399719 872.648987 190.649994 874.292847 205.5 875.964966 C 220.350006 877.637146 241.867905 879.542175 253.317566 880.198364 C 269.2052 881.108887 277.442902 881.117798 288.102783 880.235962 C 299.518646 879.291626 303.171692 878.586304 308.09848 876.375305 C 311.742767 874.739868 315.468781 872.10199 317.520721 869.704773 C 319.695496 867.164001 321.343506 863.824158 322.107941 860.408203 C 322.845612 857.112 323.069977 851.72229 322.69574 846.288513 C 322.362823 841.454834 320.925598 831.650024 319.501923 824.5 C 318.078247 817.349976 316.646301 808.28186 316.319824 804.348511 C 315.81366 798.250488 316.051025 796.526062 317.93103 792.642456 C 319.143707 790.137451 321.696899 786.717285 323.604858 785.042114 C 325.512787 783.366882 329.370636 780.832397 332.177826 779.409912 C 337.28183 776.823486 337.28183 776.823486 329.651184 772.661743 C 325.454315 770.372803 317.872803 765.575012 312.803406 762 C 307.734009 758.424988 299.330811 751.450012 294.129608 746.5 C 288.928406 741.549988 282.220978 734.575012 279.224182 731 C 276.227417 727.424988 272.476379 721.799988 270.88855 718.5 C 268.677368 713.904541 268.001404 711.071594 268.000793 706.397888 C 268.000183 701.705872 268.525452 699.516052 270.273804 696.921692 C 271.524384 695.065918 273.990936 692.574951 275.755005 691.386108 C 277.519073 690.197327 282.008362 688.50061 285.731201 687.615601 C 289.454041 686.730652 298.575012 684.925293 306 683.60376 C 313.424988 682.282227 326.700012 679.990356 335.5 678.510742 C 344.299988 677.031189 355.043793 674.896484 359.375122 673.766968 C 367.250214 671.713379 367.250214 671.713379 366.691467 666.606689 C 366.384125 663.797974 364.276611 654.299988 362.008087 645.5 C 359.739563 636.700012 357.619141 625.993652 357.29599 621.708191 C 356.929047 616.841492 357.156952 612.419495 357.903107 609.929077 C 358.719452 607.204346 360.34137 605.040894 363.025269 603.09668 C 365.185425 601.53186 370.675934 599.080811 375.22641 597.650024 C 379.776886 596.219177 388.44519 593.65918 394.489288 591.961121 C 400.533417 590.263062 408.291168 587.531433 411.72876 585.890869 C 415.166351 584.250244 418.473419 581.983887 419.07782 580.854614 C 419.972076 579.183655 419.606628 577.655884 417.115417 572.650635 C 415.431702 569.267822 406.991272 557.049988 398.358887 545.5 C 389.726532 533.950012 375.006378 514.150024 365.647461 501.5 C 356.288513 488.850006 343.76947 471.524994 337.827362 463 C 331.011749 453.221863 326.373138 445.479431 325.261749 442.026367 C 323.956757 437.971863 323.506439 433.305237 323.524811 424.026367 C 323.548553 412.043152 323.688446 411.204651 326.751099 404.688416 C 328.511902 400.942017 332.490051 394.416992 335.59137 390.188416 C 338.692719 385.959778 342.178467 380.56604 343.337524 378.202332 C 345.444855 373.904663 345.444855 373.904663 343.093018 364.723511 C 341.79953 359.673889 338.580139 348.557861 335.938812 340.021179 C 333.297455 331.484558 327.920471 314.375 323.989929 302 C 320.059387 289.625 315.254272 274.099976 313.311951 267.5 C 311.369598 260.900024 309.558624 252.349976 309.287567 248.5 C 308.797241 241.536011 308.827271 241.433716 315.12735 228.607849 C 321.459991 215.715759 321.459991 215.715759 321.864624 205.107849 C 322.087189 199.27356 321.745148 190.522461 321.104584 185.661011 C 320.382263 180.179199 318.623169 173.55658 316.473083 168.224487 C 314.566345 163.495789 311.12793 156.448303 308.832184 152.563416 C 306.536438 148.678528 302.229645 142.200745 299.261536 138.168396 C 296.293427 134.135986 290.407837 127.206787 286.182495 122.770203 C 281.957123 118.333618 274.815521 111.732849 270.312256 108.101807 C 265.80899 104.470825 257.641815 98.70575 252.162964 95.290588 C 246.684128 91.875366 236.85463 86.39856 230.319672 83.119812 C 223.784698 79.841064 213.903763 75.352051 208.36203 73.144226 C 202.820313 70.936401 192.824493 67.329895 186.149124 65.1297 C 179.47374 62.929565 166.518555 59.268921 157.359818 56.994934 C 148.20108 54.720947 131.660858 51.353577 120.603783 49.511841 C 109.5467 47.670166 93.974998 45.445129 86 44.567322 C 78.025002 43.689514 62.049999 42.316406 50.5 41.515991 C 38.950001 40.715576 25.108152 39.545837 19.740337 38.916626 C 12.810163 38.104309 9.249078 37.197144 7.457193 35.787659 C 6.069278 34.695923 3.823626 31.612061 2.466855 28.93457 C 0.767253 25.580566 0.001163 22.423279 0.003738 18.783264 C 0.006111 15.429565 0.675669 12.404297 1.837025 10.499939 C 2.843277 8.849976 5.297606 6.067871 7.29109 4.317566 C 9.641793 2.253601 12.448537 0.905334 15.277417 0.481079 C 17.676414 0.121338 29.637823 0.331543 41.85833 0.948181 C 54.078835 1.564758 71.372505 2.736145 80.288712 3.551208 C 89.204926 4.366211 104.150002 6.140747 113.5 7.494568 C 122.849998 8.84845 137.25 11.323486 145.5 12.994751 C 153.75 14.666016 167.310867 17.821228 175.635284 20.006348 C 183.959686 22.191467 197.459686 26.288696 205.635284 29.111389 C 213.810867 31.934082 225.675003 36.461548 232 39.172485 C 238.324997 41.883362 248.670761 46.815857 254.990585 50.133606 C 261.310394 53.451294 270.96756 59.105347 276.450928 62.698059 C 281.934296 66.290833 289.882416 71.86554 294.113434 75.086365 C 298.344482 78.30719 305.684448 84.613464 310.42453 89.100281 C 315.164581 93.587158 321.899292 100.687622 325.390564 104.87915 C 328.881805 109.070618 334.301453 116.325012 337.434174 121 C 340.566925 125.674988 345.335968 134 348.032104 139.5 C 350.72821 145 354.27597 153.632751 355.916016 158.683899 C 357.55603 163.735046 359.606659 171.604248 360.472961 176.171021 C 361.339264 180.737793 362.327545 189.042358 362.669159 194.625549 C 363.023132 200.410583 362.800751 208.593872 362.152161 213.651306 C 361.526215 218.532288 360.324249 225.220032 359.481171 228.512939 C 358.638062 231.805786 356.162781 238.249756 353.980499 242.832764 C 350.012726 251.165588 350.012726 251.165588 356.927429 272.332764 C 360.73053 283.974731 366.834229 302.929443 370.49118 314.454346 C 374.148163 325.979187 378.514709 340.604187 380.194641 346.954346 C 382.687683 356.377991 383.341614 361.132813 383.752716 372.825012 C 384.256409 387.149963 384.256409 387.149963 381.313568 392.825012 C 379.695007 395.946228 375.31897 403.348816 371.58902 409.275146 C 367.85907 415.201477 364.300476 421.393005 363.68103 423.034058 C 362.742035 425.521729 362.882782 426.636719 364.527405 429.740173 C 365.612335 431.787415 371.003632 439.770935 376.508057 447.481262 C 382.012482 455.191528 397.362152 476.125 410.618439 494 C 423.874725 511.875 438.050201 531.450012 442.119507 537.5 C 446.188782 543.549988 451.422852 552.161499 453.750763 556.636658 C 456.078674 561.111816 458.71402 567.625549 459.607117 571.111633 C 460.687408 575.328491 461.084381 579.981506 460.793091 585.013306 C 460.453674 590.876221 459.717682 593.748047 457.519409 597.786987 C 455.959686 600.65271 452.126465 605.436401 449.001129 608.41748 C 445.875793 611.39856 440.649506 615.561646 437.387177 617.668823 C 434.124847 619.776001 428.315643 622.943665 424.477814 624.70813 C 420.640015 626.472656 413.759674 628.947632 409.188202 630.20813 C 400.876404 632.5 400.876404 632.5 401.451904 635.5 C 401.768463 637.150024 403.033752 642.984985 404.263702 648.466675 C 405.954559 656.002502 406.5 661.612244 406.5 671.466675 C 406.5 681.681091 406.105927 685.52124 404.678009 689.221924 C 403.675934 691.81897 400.826599 696.20105 398.346161 698.9599 C 395.474548 702.153809 391.595581 705.033813 387.668121 706.888062 C 384.275665 708.489746 377.674988 710.728638 373 711.863403 C 368.325012 712.99823 357.075012 715.30127 348 716.981323 C 338.924988 718.661316 330.149994 720.384216 328.5 720.809937 C 325.5 721.584106 325.5 721.584106 333 726.867371 C 337.125 729.773193 344.325012 734.197876 349 736.700134 C 353.674988 739.202332 360.830872 743.105957 364.901917 745.374817 C 368.972961 747.643677 374.225342 751.361572 376.573853 753.636841 C 378.922363 755.912109 381.84668 759.737061 383.072357 762.136841 C 384.721405 765.365601 385.424683 768.857971 385.777191 775.569153 C 386.180908 783.2547 385.936523 785.355103 384.17514 789.336975 C 383.031982 791.921265 379.901672 796.165161 377.218842 798.767822 C 374.536041 801.370544 369.451813 805.093872 365.920502 807.041931 C 359.5 810.583862 359.5 810.583862 359.608948 815.041931 C 359.668884 817.493896 360.45639 824.282715 361.358948 830.128357 C 362.261536 835.973938 363 845.330383 363 850.920532 C 363 856.51062 362.292145 864.552856 361.427002 868.792175 C 360.561829 873.031494 358.312958 879.724976 356.429474 883.666687 C 354.546021 887.608337 350.705292 893.349609 347.894531 896.425049 C 345.083771 899.500427 338.969879 904.554565 334.308075 907.656433 C 329.390991 910.928101 322.403351 914.477234 317.666046 916.109131 C 312.473724 917.897766 305.289429 919.360474 297.937439 920.125854 C 290.306732 920.920227 279.595154 921.102539 266.437439 920.662048 C 255.471848 920.294922 238.625 919.34491 229 918.550903 C 219.375 917.756897 202.5 916.098083 191.5 914.864685 C 180.5 913.631287 165.875 912.594666 159 912.561096 C 149.295792 912.513672 145.467987 912.898315 141.885834 914.280823 C 139.348038 915.260315 135.598618 917.734741 133.553787 919.779541 C 131.508957 921.824402 128.336716 926.64801 126.504379 930.498718 C 124.672035 934.349426 120.805565 944.646118 117.912216 953.38031 C 114.844757 962.640076 111.632294 970.471985 110.206673 972.166199 C 108.861977 973.764282 106.423935 975.763672 104.788803 976.609192 C 103.04528 977.510803 96.99482 978.52002 90.157921 979.049622 C 83.746063 979.546265 67.025002 979.873901 53 979.777649 C 38.974998 979.681335 24.172735 979.445984 20.106077 979.254578 C 16.039421 979.063171 11.26124 978.300354 9.4879 977.559387 C 7.714559 976.81842 4.977983 974.526611 3.40662 972.466431 C 1.062034 969.392578 0.489006 967.535095 0.211782 962.110352 C -0.063898 956.71582 0.2994 954.682983 2.186984 951.057922 C 3.715808 948.121887 5.78245 945.963928 8.282652 944.692932 C 11.244586 943.187256 15.583968 942.569031 28.282652 941.843689 C 37.202194 941.334229 52.334511 940.823486 61.910019 940.708679 L 79.320038 940.5 Z M 626.744019 921 C 624.235291 921 620.577148 920.056519 618.019836 918.75 C 615.597717 917.512512 612.401001 914.924988 610.916077 913 C 609.079712 910.619385 607.060242 905.182434 604.601685 896 C 602.613708 888.575012 596.33783 864.275024 590.655334 842 C 584.972839 819.724976 572.266418 769.212524 562.418823 729.75 C 552.571289 690.287476 544.28595 658.00177 544.00708 658.003906 C 543.72821 658.006042 539.060242 669.818542 533.633911 684.253906 C 528.207581 698.68927 520.831177 717.924988 517.241882 727 C 513.652588 736.075012 509.002716 747.225891 506.908813 751.779785 C 503.582397 759.014099 502.621796 760.261841 499.300842 761.661865 C 496.301605 762.92627 490.016632 763.398132 469.5 763.899353 C 443.5 764.534485 443.5 764.534485 439.5 761.10321 C 437.299988 759.215942 434.489807 756.058228 433.255127 754.085938 C 431.66629 751.547974 431.008759 748.954102 431.005127 745.210144 C 431.001923 741.909851 431.74173 738.466431 432.972107 736.054688 C 434.056763 733.928589 436.109863 731.272156 437.534576 730.151489 C 438.95929 729.030762 441.784363 727.565552 443.812469 726.895386 C 445.840607 726.22522 453.452576 725.399536 460.727966 725.060486 C 468.259338 724.709534 474.434692 723.965332 475.067688 723.332275 C 475.679169 722.720825 485.13858 698.433411 496.088593 669.360229 C 507.038605 640.287109 519.435425 607.763062 523.637024 597.084534 C 528.889954 583.734131 532.248413 576.614624 534.388184 574.293457 C 536.09967 572.43689 539.427429 570.258423 541.783203 569.452454 C 544.480408 568.529602 547.555481 568.225098 550.087952 568.630066 C 552.299805 568.983765 555.53064 570.230835 557.267578 571.401367 C 559.004578 572.571899 561.661926 575.322937 563.172913 577.514771 C 564.683838 579.706665 567.461365 586.674988 569.345215 593 C 571.229004 599.325012 576.177307 617.775024 580.341492 634 C 584.505615 650.224976 591.338257 677.224976 595.525146 694 C 599.712036 710.775024 606.487488 737.325012 610.581665 753 C 614.675903 768.674988 619.271484 785.549988 620.794128 790.5 C 623.562561 799.5 623.562561 799.5 627.753113 776 C 630.057861 763.075012 635.337524 733.038574 639.485657 709.252441 C 643.63385 685.466248 650.625183 645.41626 655.022095 620.252441 C 659.418945 595.088623 665.956787 558.075012 669.550659 538 C 673.14447 517.924988 678.549561 488.450012 681.562012 472.5 C 684.574402 456.549988 687.508484 442.326294 688.082153 440.891785 C 688.655823 439.457275 690.559509 437.207275 692.312622 435.891785 C 695.029541 433.853027 696.868225 433.44873 704.770447 433.152771 C 714.040833 432.805542 714.040833 432.805542 717.880737 436.652771 C 720.556152 439.333252 722.236328 442.277954 723.421021 446.362671 C 724.356201 449.587158 728.699646 466.012207 733.073059 482.862701 C 737.446472 499.713226 749.589233 547.700012 760.056946 589.5 C 770.524719 631.299988 784.298706 685.974976 790.665833 711 C 797.03302 736.025024 802.545471 756.835022 802.91571 757.244446 C 803.286011 757.653931 807.051819 745.728943 811.28418 730.744446 C 815.516602 715.76001 824.377747 683.360718 830.975647 658.746094 C 837.573547 634.13147 847.02179 599.031494 851.971802 580.746094 C 857.817627 559.151367 862.115662 545.246155 864.23584 541.068848 C 866.878235 535.862793 868.357239 534.181152 872 532.240967 C 875.693909 530.27356 877.612915 529.911011 882.71283 530.217102 C 887.82782 530.52417 889.594849 531.129272 892.71283 533.641785 C 894.795776 535.32019 897.708801 539.125 899.186157 542.096741 C 901.021423 545.788391 913.901978 595.64978 939.847595 699.5 C 960.733948 783.099976 978.398743 854.293091 979.1026 857.706848 C 980.31366 863.58075 980.253662 864.188416 977.983215 869.035767 C 976.663757 871.852966 974.108643 875.453491 972.305176 877.036865 C 970.50177 878.6203 967.124084 880.42804 964.799255 881.054077 C 962.474426 881.680054 959.049133 881.945068 957.1875 881.643005 C 955.325928 881.340942 952.159668 880.244385 950.151428 879.206299 C 948.087708 878.139587 945.321655 875.40155 943.790039 872.909424 C 941.948486 869.913086 938.664917 859.366577 933.543945 840 C 929.399048 824.325012 918.116028 780.224976 908.470459 742 C 898.82489 703.775024 888.614868 663.536438 885.781555 652.580994 C 882.060181 638.191833 880.40332 633.194702 879.813354 634.580994 C 879.364136 635.636475 874.725708 652.363403 869.505676 671.751953 C 864.285706 691.140564 855.05011 725.565552 848.982239 748.251953 C 842.914307 770.938354 834.98999 800.075012 831.37262 813 C 827.755249 825.924988 823.224304 840.617676 821.303833 845.650391 C 819.383301 850.683044 816.554016 856.307617 815.016418 858.149353 C 812.300354 861.402771 811.976074 861.508057 803.612976 861.851501 C 795.005005 862.205017 795.005005 862.205017 791.674866 858.852539 C 789.436035 856.598572 787.281189 852.550781 785.09906 846.5 C 783.313904 841.549988 780.137207 831.424988 778.039673 824 C 775.942139 816.575012 769.023193 790.025024 762.664185 765 C 756.305237 739.974976 742.084778 683.5 731.06311 639.5 C 720.041504 595.5 710.437561 557.479858 709.721069 555.010864 C 708.42511 550.545166 708.391357 550.672852 703.240906 579.510864 C 700.393311 595.454895 694.462097 629.314758 690.060486 654.755005 C 685.658813 680.195313 678.85614 719.345337 674.94342 741.755005 C 671.030701 764.164795 665.160095 797.349976 661.897583 815.5 C 658.635071 833.650024 653.743042 860.200012 651.026367 874.5 C 648.309692 888.799988 645.57251 902.897949 644.943726 905.828857 C 644.215027 909.225281 642.663757 912.452271 640.665833 914.727783 C 638.941833 916.691345 636.076172 918.905884 634.297729 919.648926 C 632.519287 920.392029 629.120117 921 626.744019 921 Z"/>
</svg>
