<?xml version="1.0" encoding="UTF-8"?>
<!-- Generated by Pixelmator Pro 3.7 -->
<svg width="395" height="68" viewBox="0 0 395 68" xmlns="http://www.w3.org/2000/svg">
    <g id="layer2">
        <g id="g3918">
            <linearGradient id="linearGradient1" x1="193.970238" y1="3.000805" x2="193.970238" y2="65.133709" gradientUnits="userSpaceOnUse">
                <stop offset="1e-05" stop-color="#0e3242" stop-opacity="1"/>
                <stop offset="1" stop-color="#4fa5e0" stop-opacity="1"/>
            </linearGradient>
            <path id="rect3080" fill="url(#linearGradient1)" stroke="#e2e3db" stroke-width="2.061923" stroke-linecap="round" stroke-linejoin="round" d="M 46.224415 2 L 348.775543 2 C 373.200012 2 393 16.22974 393 33.783009 L 393 33.783009 C 393 51.336269 373.200012 65.566017 348.775543 65.566017 L 46.224415 65.566017 C 21.799942 65.566017 2 51.336269 2 33.783009 L 2 33.783009 C 2 16.22974 21.799942 2 46.224415 2 Z"/>
            <linearGradient id="linearGradient2" x1="198.467047" y1="6.5314" x2="198.467047" y2="30.404613" gradientUnits="userSpaceOnUse">
                <stop offset="1e-05" stop-color="#ffffff" stop-opacity="1"/>
                <stop offset="1" stop-color="#ffffff" stop-opacity="0"/>
            </linearGradient>
            <path id="rect3884" fill="url(#linearGradient2)" stroke="none" d="M 39.025669 6.336784 L 356.506226 6.336784 C 365.290405 6.336784 372.411346 11.454468 372.411346 17.767445 L 372.411346 17.767445 C 372.411346 24.080425 365.290405 29.198112 356.506226 29.198112 L 39.025669 29.198112 C 30.241478 29.198112 23.120495 24.080425 23.120495 17.767445 L 23.120495 17.767445 C 23.120495 11.454468 30.241478 6.336784 39.025669 6.336784 Z"/>
            <linearGradient id="linearGradient3" x1="175.025615" y1="59.898282" x2="175.025615" y2="41.61981" gradientUnits="userSpaceOnUse">
                <stop offset="1e-05" stop-color="#bafdff" stop-opacity="1"/>
                <stop offset="1" stop-color="#b5fcff" stop-opacity="0"/>
            </linearGradient>
            <path id="rect3860" fill="url(#linearGradient3)" stroke="none" d="M 39.025669 36.520584 L 356.506226 36.520584 C 365.290405 36.520584 372.411346 41.638271 372.411346 47.951248 L 372.411346 47.951248 C 372.411346 54.264225 365.290405 59.381908 356.506226 59.381908 L 39.025669 59.381908 C 30.241478 59.381908 23.120495 54.264225 23.120495 47.951248 L 23.120495 47.951248 C 23.120495 41.638271 30.241478 36.520584 39.025669 36.520584 Z"/>
        </g>
    </g>
</svg>
